<svg width="1em" height="1em" viewBox="0 0 26 29" fill="currentColor" xmlns="http://www.w3.org/2000/svg">
<path d="M9.87537 11.3157V10.197C9.49211 10.1458 9.10246 10.1138 8.70003 10.1138C3.90288 10.1075 0 14.0136 0 18.8212C0 21.7684 1.46917 24.3768 3.71764 25.9559C2.26763 24.4024 1.37974 22.3118 1.37974 20.0231C1.37974 15.2858 5.17403 11.4244 9.87537 11.3157Z" fill="#25F4EE"/>
<path d="M10.0862 23.9996C12.2261 23.9996 13.9763 22.2927 14.053 20.1702L14.0594 1.2019H17.5215C17.4512 0.81192 17.4129 0.40916 17.4129 0H12.686L12.6796 18.9683C12.603 21.0908 10.8527 22.7977 8.71286 22.7977C8.04854 22.7977 7.42255 22.6315 6.86682 22.3374C7.58224 23.3411 8.75758 23.9996 10.0862 23.9996Z" fill="#25F4EE"/>
<path d="M23.9923 7.63968V6.58488C22.6701 6.58488 21.4436 6.19488 20.4088 5.51718C21.3286 6.57208 22.5742 7.33928 23.9923 7.63968Z" fill="#25F4EE"/>
<path d="M20.4088 5.51718C19.3995 4.36007 18.7927 2.8513 18.7927 1.20189H17.528C17.8537 3.00474 18.9269 4.55188 20.4088 5.51718Z" fill="#FE2C55"/>
<path d="M8.70642 14.8383C6.51544 14.8383 4.73328 16.622 4.73328 18.8148C4.73328 20.3428 5.602 21.6725 6.86676 22.3374C6.39408 21.6853 6.11302 20.8862 6.11302 20.0167C6.11302 17.8239 7.89518 16.0402 10.0862 16.0402C10.495 16.0402 10.891 16.1105 11.2615 16.2256V11.3925C10.8782 11.3413 10.4886 11.3093 10.0862 11.3093C10.0159 11.3093 9.95202 11.3157 9.88175 11.3157V15.0237C9.50488 14.9086 9.11523 14.8383 8.70642 14.8383Z" fill="#FE2C55"/>
<path d="M23.9921 7.63968V11.3157C21.5392 11.3157 19.2652 10.5294 17.4127 9.19958V18.8212C17.4127 23.6224 13.5099 27.535 8.70631 27.535C6.85388 27.535 5.12921 26.9468 3.71753 25.9559C5.30806 27.6628 7.57569 28.7369 10.0861 28.7369C14.8832 28.7369 18.7925 24.8307 18.7925 20.0231V10.4015C20.6449 11.7313 22.9189 12.5176 25.3718 12.5176V7.78678C24.8927 7.78678 24.4328 7.73558 23.9921 7.63968Z" fill="#FE2C55"/>
<path d="M17.4127 18.8212V9.19958C19.2652 10.5294 21.5392 11.3157 23.9921 11.3157V7.63968C22.574 7.33928 21.3284 6.57208 20.4086 5.51718C18.9266 4.55188 17.8599 3.00474 17.5213 1.20189H14.0592L14.0528 20.1701C13.9762 22.2926 12.2259 23.9996 10.0861 23.9996C8.75742 23.9996 7.58847 23.3411 6.86028 22.3438C5.59551 21.6725 4.72679 20.3492 4.72679 18.8212C4.72679 16.6284 6.50895 14.8447 8.69993 14.8447C9.10874 14.8447 9.50478 14.915 9.87527 15.0301V11.3221C5.17393 11.4244 1.37964 15.2858 1.37964 20.0231C1.37964 22.3118 2.26753 24.396 3.71753 25.9559C5.12921 26.9468 6.85389 27.535 8.70632 27.535C13.5035 27.535 17.4127 23.6224 17.4127 18.8212Z"/>
</svg>
