<svg  viewBox="0 0 28 28" fill="currentColor" xmlns="http://www.w3.org/2000/svg">
<path d="M10.9831 10.9255V9.84538C10.6131 9.79595 10.2369 9.76505 9.8483 9.76505C5.21657 9.75897 1.44827 13.5304 1.44827 18.1722C1.44827 21.0178 2.86678 23.5362 5.03772 25.0609C3.63771 23.5609 2.78044 21.5424 2.78044 19.3327C2.78044 14.7587 6.44389 11.0305 10.9831 10.9255Z" fill="#25F4EE"/>
<path d="M11.1867 23.172C13.2528 23.172 14.9426 21.524 15.0167 19.4747L15.0229 1.16046H18.3656C18.2977 0.783923 18.2607 0.395051 18.2607 0H13.6968L13.6906 18.3142C13.6167 20.3635 11.9267 22.0116 9.86069 22.0116C9.21928 22.0116 8.61488 21.8511 8.07831 21.5671C8.76906 22.5362 9.90387 23.172 11.1867 23.172Z" fill="#25F4EE"/>
<path d="M24.6133 7.37625V6.35782C23.3366 6.35782 22.1524 5.98127 21.1533 5.32693C22.0414 6.34546 23.2441 7.0862 24.6133 7.37625Z" fill="#25F4EE"/>
<path d="M21.1533 5.32692C20.1788 4.20971 19.5929 2.75296 19.5929 1.16043H18.3719C18.6863 2.90111 19.7225 4.3949 21.1533 5.32692Z" fill="#FE2C55"/>
<path d="M9.85448 14.3266C7.73905 14.3266 6.01834 16.0488 6.01834 18.166C6.01834 19.6413 6.8571 20.9252 8.07825 21.5671C7.62187 20.9375 7.3505 20.166 7.3505 19.3265C7.3505 17.2093 9.07121 15.4871 11.1867 15.4871C11.5814 15.4871 11.9637 15.555 12.3215 15.6661V10.9997C11.9514 10.9502 11.5752 10.9193 11.1867 10.9193C11.1188 10.9193 11.0571 10.9255 10.9893 10.9255V14.5056C10.6254 14.3945 10.2492 14.3266 9.85448 14.3266Z" fill="#FE2C55"/>
<path d="M24.6131 7.37624V10.9255C22.2448 10.9255 20.0492 10.1663 18.2606 8.88235V18.1722C18.2606 22.8078 14.4923 26.5855 9.85438 26.5855C8.06583 26.5855 6.40063 26.0176 5.03763 25.0609C6.57331 26.7089 8.76275 27.746 11.1866 27.746C15.8183 27.746 19.5928 23.9745 19.5928 19.3326V10.0428C21.3813 11.3268 23.5769 12.086 25.9452 12.086V7.51826C25.4826 7.51826 25.0386 7.46883 24.6131 7.37624Z" fill="#FE2C55"/>
<path d="M18.2605 18.1722V8.88234C20.0492 10.1663 22.2447 10.9255 24.6131 10.9255V7.37623C23.2439 7.08619 22.0412 6.34544 21.1531 5.32692C19.7222 4.3949 18.6923 2.90111 18.3654 1.16043H15.0227L15.0165 19.4746C14.9425 21.5239 13.2526 23.172 11.1866 23.172C9.90371 23.172 8.77507 22.5362 8.07199 21.5733C6.85083 20.9252 6.01207 19.6475 6.01207 18.1722C6.01207 16.055 7.73277 14.3328 9.8482 14.3328C10.2429 14.3328 10.6253 14.4007 10.983 14.5118V10.9317C6.44379 11.0304 2.78033 14.7587 2.78033 19.3326C2.78033 21.5424 3.63761 23.5547 5.03761 25.0609C6.40061 26.0176 8.06582 26.5855 9.85437 26.5855C14.4861 26.5855 18.2605 22.8078 18.2605 18.1722Z" />
</svg>
