<svg fill="currentColor" color="inherit" font-size="14" viewBox="0 0 48 48" xmlns="http://www.w3.org/2000/svg" width="1em" height="1em"><path d="M20 9c0-1.1.9-2 2-2h4a2 2 0 1 1 0 4h-4a2 2 0 0 1-2-2ZM18 38.5c0-.83.67-1.5 1.5-1.5h9a1.5 1.5 0 0 1 0 3h-9a1.5 1.5 0 0 1-1.5-1.5Z"></path><path fill-rule="evenodd" clip-rule="evenodd" d="M8 10.6c0-3.36 0-5.04.65-6.32a6 6 0 0 1 2.63-2.63C12.56 1 14.23 1 17.6 1h12.8c3.36 0 5.04 0 6.32.65a6 6 0 0 1 2.63 2.63C40 5.56 40 7.24 40 10.6v26.8c0 3.36 0 5.04-.65 6.32a6 6 0 0 1-2.63 2.63c-1.28.65-2.96.65-6.32.65H17.6c-3.36 0-5.04 0-6.32-.65a6 6 0 0 1-2.63-2.63C8 42.44 8 40.75 8 37.4V10.6ZM17.6 5h12.8c1.75 0 2.82 0 3.62.07.37.03.6.07.73.1.48.11.96.58 1.08 1.08.03.14.07.36.1.73.07.8.07 1.87.07 3.62v26.8c0 1.75 0 2.82-.07 3.62-.03.37-.07.6-.1.73-.11.48-.58.96-1.08 1.08-.14.03-.36.07-.73.1-.8.07-1.87.07-3.62.07H17.6c-1.75 0-2.82 0-3.62-.07-.37-.03-.6-.07-.73-.1-.5-.12-.97-.6-1.08-1.08a5.11 5.11 0 0 1-.1-.73c-.07-.8-.07-1.87-.07-3.62V10.6c0-1.75 0-2.82.07-3.62.03-.37.07-.6.1-.73.12-.5.6-.97 1.08-1.08.14-.03.36-.07.73-.1C14.78 5 15.85 5 17.6 5Z"></path></svg>