<svg  viewBox="0 0 116 28" fill="currentColor" xmlns="http://www.w3.org/2000/svg">
<path d="M9.62214 11.0255V9.93551C9.24871 9.88562 8.86905 9.85444 8.47694 9.85444C3.8028 9.8483 0 13.6542 0 18.3386C0 21.2102 1.4315 23.7517 3.62231 25.2903C2.20948 23.7766 1.34436 21.7397 1.34436 19.5096C1.34436 14.8938 5.04136 11.1314 9.62214 11.0255Z" fill="#25F4EE"/>
<path d="M9.82756 23.3842C11.9126 23.3842 13.6179 21.721 13.6926 19.653L13.6989 1.17108H17.0722C17.0037 0.791101 16.9664 0.398668 16.9664 0H12.3607L12.3545 18.4819C12.2798 20.55 10.5744 22.2131 8.48944 22.2131C7.84215 22.2131 7.23221 22.0512 6.69073 21.7646C7.38781 22.7426 8.53301 23.3842 9.82756 23.3842Z" fill="#25F4EE"/>
<path d="M23.3771 7.44378V6.41602C22.0888 6.41602 20.8938 6.03602 19.8855 5.3757C20.7817 6.40355 21.9954 7.15108 23.3771 7.44378Z" fill="#25F4EE"/>
<path d="M19.8855 5.3757C18.9021 4.24826 18.3108 2.77818 18.3108 1.17107H17.0786C17.3959 2.92769 18.4416 4.43515 19.8855 5.3757Z" fill="#FE2C55"/>
<path d="M8.48317 14.4578C6.34837 14.4578 4.61191 16.1958 4.61191 18.3323C4.61191 19.8211 5.45835 21.1168 6.69068 21.7646C6.23012 21.1292 5.95627 20.3506 5.95627 19.5034C5.95627 17.3668 7.69273 15.6289 9.82757 15.6289C10.2259 15.6289 10.6117 15.6974 10.9727 15.8095V11.1004C10.5993 11.0505 10.2196 11.0193 9.82757 11.0193C9.75907 11.0193 9.69683 11.0255 9.62836 11.0255V14.6384C9.26115 14.5263 8.88149 14.4578 8.48317 14.4578Z" fill="#FE2C55"/>
<path d="M23.3769 7.44379V11.0255C20.9869 11.0255 18.7712 10.2594 16.9662 8.96369V18.3386C16.9662 23.0167 13.1635 26.8289 8.48305 26.8289C6.67812 26.8289 4.99767 26.2558 3.62219 25.2903C5.17194 26.9534 7.38142 28 9.82746 28C14.5015 28 18.3106 24.194 18.3106 19.5096V10.1348C20.1155 11.4305 22.3312 12.1966 24.7212 12.1966V7.58711C24.2544 7.58711 23.8063 7.53723 23.3769 7.44379Z" fill="#FE2C55"/>
<path d="M16.9662 18.3386V8.96368C18.7712 10.2594 20.9869 11.0255 23.3769 11.0255V7.44378C21.9952 7.15108 20.7815 6.40355 19.8853 5.3757C18.4413 4.43515 17.4019 2.92769 17.072 1.17107H13.6987L13.6925 19.6529C13.6178 21.7209 11.9124 23.3842 9.82747 23.3842C8.53287 23.3842 7.39389 22.7426 6.68437 21.7708C5.45203 21.1167 4.60559 19.8274 4.60559 18.3386C4.60559 16.202 6.34205 14.464 8.47685 14.464C8.87518 14.464 9.26106 14.5325 9.62205 14.6447V11.0318C5.04126 11.1314 1.34427 14.8938 1.34427 19.5096C1.34427 21.7396 2.20939 23.7704 3.62221 25.2903C4.99769 26.2558 6.67815 26.8289 8.48308 26.8289C13.1572 26.8289 16.9662 23.0166 16.9662 18.3386Z" />
<path d="M29.2772 7.45615H43.6732L42.3537 11.5799H38.6194V26.8226H33.9639V11.5799L29.2835 11.5861L29.2772 7.45615Z" />
<path d="M67.2616 7.45615H81.9936L80.6741 11.5799H76.6099V26.8226H71.9482V11.5799L67.2678 11.5861L67.2616 7.45615Z" />
<path d="M44.5569 13.6168H49.1688V26.8226H44.5817L44.5569 13.6168Z" />
<path d="M51.0047 7.40646H55.6165V16.4262L60.1849 11.935H65.6868L59.9049 17.5475L66.3777 26.8226H61.299L56.9796 20.3942L55.6104 21.7209V26.8226H50.9985V7.40646H51.0047Z" />
<path d="M99.8619 7.40646H104.475V16.4262L109.042 11.935H114.545L108.763 17.5475L115.235 26.8226H110.163L105.843 20.3942L104.475 21.7209V26.8226H99.8619V7.40646Z" />
<path d="M46.8597 12.1094C48.1418 12.1094 49.1812 11.0691 49.1812 9.78584C49.1812 8.50271 48.1418 7.46239 46.8597 7.46239C45.5776 7.46239 44.5382 8.50271 44.5382 9.78584C44.5382 11.0691 45.5776 12.1094 46.8597 12.1094Z" />
<path d="M81.4022 18.9178C81.4022 14.7631 84.6076 11.3556 88.6842 11.038C88.4788 11.0193 88.1987 11.0131 87.9934 11.0131C83.6304 11.0131 80.0952 14.5512 80.0952 18.9178C80.0952 23.2845 83.6304 26.8226 87.9934 26.8226C88.1987 26.8226 88.4788 26.8101 88.6842 26.7978C84.6138 26.48 81.4022 23.0727 81.4022 18.9178Z" fill="#25F4EE"/>
<path d="M90.4768 11.0131C90.2652 11.0131 89.9851 11.0255 89.7798 11.038C93.8501 11.3556 97.0555 14.7631 97.0555 18.9178C97.0555 23.0727 93.8501 26.48 89.7798 26.7978C89.9851 26.8164 90.2652 26.8226 90.4768 26.8226C94.8397 26.8226 98.375 23.2845 98.375 18.9178C98.375 14.5512 94.8397 11.0131 90.4768 11.0131Z" fill="#FE2C55"/>
<path d="M89.232 22.7613C87.1096 22.7613 85.3918 21.042 85.3918 18.9178C85.3918 16.7937 87.1096 15.0745 89.232 15.0745C91.3543 15.0745 93.0721 16.7937 93.0721 18.9178C93.0721 21.042 91.3482 22.7613 89.232 22.7613ZM89.232 11.0131C84.8691 11.0131 81.3339 14.5512 81.3339 18.9178C81.3339 23.2845 84.8691 26.8226 89.232 26.8226C93.5949 26.8226 97.1301 23.2845 97.1301 18.9178C97.1301 14.5512 93.5949 11.0131 89.232 11.0131Z" />
</svg>
