<svg xmlns="http://www.w3.org/2000/svg" fill="currentColor" viewBox="0 0 44 42"><path d="M31.68 23.999c.042.004.084.012.126.021l.036.01a.991.991 0 0 1 .448.26l1.41 1.42a.998.998 0 0 1 .158.207l.006.012a.997.997 0 0 1 .064.14l.007.019c.036.104.057.214.057.327a.998.998 0 0 1-.104.438.996.996 0 0 1-.187.267L29.82 31H43l.098.005A1 1 0 0 1 44 32v2a.997.997 0 0 1-.091.416l-.01.019a.988.988 0 0 1-.67.537A.998.998 0 0 1 43 35H29.82l3.88 3.88a1 1 0 0 1 .292.705.997.997 0 0 1-.093.415l-.009.019a.999.999 0 0 1-.19.271l-1.41 1.42a1 1 0 0 1-1.002.252l-.092-.033a.988.988 0 0 1-.326-.219l-3.55-3.55-3.75-3.75a1.991 1.991 0 0 1-.128-.143l-.017-.022c-.026-.032-.051-.065-.075-.098l-.027-.041-.018-.03a1.966 1.966 0 0 1-.272-.666l-.007-.03a2.016 2.016 0 0 1-.028-.183l-.01-.197a2 2 0 0 1 .582-1.41l7.3-7.3a1 1 0 0 1 .225-.17l.01-.007.09-.042c.122-.05.254-.077.386-.077l.098.005ZM16.996 23a21.254 21.254 0 0 1 3.041.219 19.19 19.19 0 0 1 1.328.245c1.029.23 2.004.541 2.922.93.09.012.178.027.257.051.057.017.146.05.23.113A.553.553 0 0 1 25 25a.653.653 0 0 1-.07.285c-.029.057-.063.11-.096.158a4.16 4.16 0 0 1-.255.326c-.203.24-.489.547-.825.895-.674.698-1.577 1.585-2.5 2.477-1.505 1.454-3.048 2.909-3.779 3.607.697.66 2.255 2.135 3.78 3.611.984.954 1.95 1.904 2.64 2.618.343.354.627.66.81.88.087.105.173.215.228.312.017.03.085.145.09.293a.52.52 0 0 1-.452.533L24.5 41H.98l-.102-.005a.988.988 0 0 1-.192-.04l-.012-.004a.988.988 0 0 1-.163-.07c-.009-.004-.017-.01-.026-.015l-.05-.03-.033-.023a.968.968 0 0 1-.046-.036l-.024-.02a.959.959 0 0 1-.04-.038l-.029-.029-.039-.042-.02-.027a.904.904 0 0 1-.124-.206l-.016-.037a.928.928 0 0 1-.046-.161A.953.953 0 0 1 0 40c.054-1.631.27-3.182.635-4.636a19.484 19.484 0 0 1 .62-2 17.886 17.886 0 0 1 .318-.79 16.993 16.993 0 0 1 .731-1.498c.355-.643.748-1.255 1.18-1.833a14.85 14.85 0 0 1 4.719-4.124 15.564 15.564 0 0 1 2.41-1.082 17.842 17.842 0 0 1 4.227-.93c.697-.07 1.414-.107 2.152-.107h.005ZM16.99 0a10.004 10.004 0 0 1 1.34.092l.079.01c.097.014.194.032.29.048.068.012.136.022.203.036.065.012.13.027.196.042.091.02.182.039.273.061l.216.057a10.098 10.098 0 0 1 .694.213c.07.024.14.05.21.077.07.026.139.051.208.079a9.824 9.824 0 0 1 1.313.64c.055.032.11.063.163.096.076.046.15.094.225.142.066.042.133.084.198.129.056.037.11.077.165.116L22.99 2l.151.118c.072.057.146.112.217.171.07.057.137.117.205.177.05.044.102.086.152.132.059.053.114.108.171.163.059.056.12.11.177.168a9.991 9.991 0 0 1 1.882 2.623c.029.058.06.116.088.176a9.998 9.998 0 0 1 .947 4.718l-.001.05c-.008.16-.02.318-.035.477l-.018.15a10.16 10.16 0 0 1-.04.321c-.01.068-.023.135-.034.202a9.364 9.364 0 0 1-.151.74c-.017.069-.036.136-.054.204-.021.079-.042.157-.065.235-.016.057-.034.114-.052.171a9.945 9.945 0 0 1-.762 1.793 10.06 10.06 0 0 1-.501.821c-.04.06-.083.12-.125.18a9.87 9.87 0 0 1-.29.386c-.05.064-.1.129-.152.192l-.122.142a10.01 10.01 0 0 1-.515.561c-.303.303-.626.581-.961.84-.043.033-.084.068-.127.1-.058.043-.116.084-.175.126-.072.051-.144.102-.217.151-.068.046-.137.09-.207.135l-.199.125c-.061.037-.124.072-.186.108-.073.042-.145.085-.22.125a10.059 10.059 0 0 1-1.505.664 10.2 10.2 0 0 1-1.166.326l-.209.044a9.806 9.806 0 0 1-.236.042c-.082.014-.163.029-.245.04-.076.011-.153.02-.229.029-.077.01-.155.02-.232.027a9.832 9.832 0 0 1-.385.028c-.028.002-.055.005-.083.006-.16.008-.32.012-.48.012l-.01.001v-.001V20l-.495-.013a10.04 10.04 0 0 1-.463-.034c-.065-.006-.13-.015-.195-.022-.083-.01-.165-.02-.248-.032-.078-.01-.155-.024-.233-.037l-.236-.04-.195-.04a9.608 9.608 0 0 1-.463-.11c-.084-.021-.167-.045-.25-.07-.062-.017-.123-.034-.184-.053a9.97 9.97 0 0 1-.29-.096c-.049-.017-.099-.032-.148-.05-.085-.03-.168-.064-.252-.097a9.937 9.937 0 0 1-.608-.26c-.039-.018-.077-.038-.115-.057-.093-.045-.185-.09-.276-.138l-.186-.102a9.556 9.556 0 0 1-.227-.129l-.15-.09a10.348 10.348 0 0 1-.4-.257 9.981 9.981 0 0 1-.234-.165l-.15-.108a9.817 9.817 0 0 1-.22-.172l-.147-.117a9.97 9.97 0 0 1-.346-.298l-.36-.342a9.981 9.981 0 0 1-.33-.347c-.04-.044-.078-.09-.117-.134-.068-.078-.137-.155-.202-.235-.036-.044-.07-.09-.107-.134a10.066 10.066 0 0 1-.324-.432l-.127-.18c-.048-.072-.094-.145-.14-.217a9.873 9.873 0 0 1-.134-.213l-.082-.14a9.96 9.96 0 0 1-.242-.438 9.934 9.934 0 0 1-.405-.882 10.141 10.141 0 0 1-.258-.728c-.015-.045-.03-.09-.043-.136-.03-.101-.058-.203-.084-.304-.014-.054-.03-.107-.042-.16a9.97 9.97 0 0 1-.082-.368l-.022-.1a9.928 9.928 0 0 1-.058-.325c-.008-.05-.017-.101-.024-.152-.016-.107-.028-.216-.04-.324-.006-.05-.014-.1-.019-.15a10.018 10.018 0 0 1-.035-.476L6.99 10c0-.491.037-.978.108-1.458.009-.06.02-.118.03-.177.016-.1.032-.2.052-.3l.02-.095c.026-.123.053-.244.083-.366l.032-.124c.03-.114.06-.228.095-.341l.04-.13a10.003 10.003 0 0 1 .674-1.63l.073-.14a10.025 10.025 0 0 1 .42-.703l.072-.111c.081-.121.166-.24.253-.359l.026-.036c.19-.256.393-.504.609-.742l.342-.36a9.995 9.995 0 0 1 3.028-2.07c.22-.098.444-.19.671-.272a9.997 9.997 0 0 1 2.876-.573L16.99 0Z"/></svg>