<svg width="1em" height="1em" viewBox="0 0 12 12" fill="none" xmlns="http://www.w3.org/2000/svg">
<g clip-path="url(#clip0_3_10)">
<path d="M4.7475 0.75C5.41054 0.75 6.04643 1.01339 6.51527 1.48223C6.98411 1.95107 7.2475 2.58696 7.2475 3.25C7.2475 3.91304 6.98411 4.54893 6.51527 5.01777C6.04643 5.48661 5.41054 5.75 4.7475 5.75C4.08446 5.75 3.44857 5.48661 2.97973 5.01777C2.51089 4.54893 2.2475 3.91304 2.2475 3.25C2.2475 2.58696 2.51089 1.95107 2.97973 1.48223C3.44857 1.01339 4.08446 0.75 4.7475 0.75ZM4.7475 1.75C4.34968 1.75 3.96814 1.90804 3.68684 2.18934C3.40554 2.47064 3.2475 2.85218 3.2475 3.25C3.2475 3.64782 3.40554 4.02936 3.68684 4.31066C3.96814 4.59196 4.34968 4.75 4.7475 4.75C5.14533 4.75033 5.52699 4.59261 5.80853 4.31154C6.09007 4.03047 6.24842 3.64907 6.24875 3.25125C6.24908 2.85343 6.09136 2.47176 5.81029 2.19022C5.52922 1.90868 5.14783 1.75033 4.75 1.75H4.7475ZM4.7475 6.5C5.4875 6.5 6.1475 6.645 6.715 6.9125L5.9475 7.6775C5.55941 7.55521 5.15437 7.4953 4.7475 7.5C2.725 7.5 1.575 8.79 1.5 10.75C1.495 10.8875 1.385 11 1.245 11H0.745C0.6075 11 0.495 10.8875 0.5 10.75C0.5825 8.2475 2.175 6.5 4.75 6.5H4.7475ZM8.925 10.47L7.955 9.5H11.25C11.3163 9.5 11.3799 9.47366 11.4268 9.42678C11.4737 9.37989 11.5 9.3163 11.5 9.25V8.75C11.5 8.6837 11.4737 8.62011 11.4268 8.57322C11.3799 8.52634 11.3163 8.5 11.25 8.5H7.955L8.925 7.53C8.97156 7.48316 8.9977 7.4198 8.9977 7.35375C8.9977 7.2877 8.97156 7.22434 8.925 7.1775L8.5725 6.8225C8.54926 6.79907 8.52161 6.78047 8.49114 6.76778C8.46068 6.75508 8.428 6.74855 8.395 6.74855C8.362 6.74855 8.32932 6.75508 8.29886 6.76778C8.26839 6.78047 8.24074 6.79907 8.2175 6.8225L6.3925 8.6475C6.29937 8.74118 6.2471 8.86791 6.2471 9C6.2471 9.13209 6.29937 9.25882 6.3925 9.3525L8.2175 11.1775C8.24074 11.2009 8.26839 11.2195 8.29886 11.2322C8.32932 11.2449 8.362 11.2514 8.395 11.2514C8.428 11.2514 8.46068 11.2449 8.49114 11.2322C8.52161 11.2195 8.54926 11.2009 8.5725 11.1775L8.925 10.8225C8.97156 10.7757 8.9977 10.7123 8.9977 10.6462C8.9977 10.5802 8.97156 10.5168 8.925 10.47Z" fill="black"/>
<path d="M8.42003 6.74968C8.43053 6.75068 8.44103 6.75268 8.45153 6.75493L8.46053 6.75743C8.50297 6.76879 8.54162 6.79122 8.57253 6.82243L8.92503 7.17743C8.9404 7.19288 8.95368 7.21028 8.96453 7.22918L8.96603 7.23218C8.97225 7.24342 8.9776 7.25512 8.98203 7.26718L8.98378 7.27193C8.99278 7.29793 8.99803 7.32543 8.99803 7.35368C8.99781 7.39168 8.98892 7.42913 8.97203 7.46318C8.96022 7.48784 8.94442 7.51039 8.92528 7.52993L7.95504 8.49992H11.25L11.2745 8.50116C11.3363 8.50725 11.3935 8.53608 11.4352 8.58205C11.4769 8.62803 11.5 8.68786 11.5 8.74991V9.24991C11.5 9.28581 11.4922 9.32128 11.4773 9.35391L11.4748 9.35866C11.4587 9.39219 11.4353 9.42168 11.4063 9.44493C11.3773 9.46817 11.3435 9.48457 11.3073 9.4929C11.2885 9.49744 11.2693 9.49979 11.25 9.4999H7.95504L8.92503 10.4699C8.9717 10.5167 8.99795 10.5801 8.99803 10.6461C8.99783 10.682 8.9899 10.7174 8.97478 10.7499L8.97253 10.7546C8.96057 10.7797 8.94452 10.8026 8.92503 10.8224L8.57253 11.1774C8.54047 11.2097 8.50019 11.2326 8.45605 11.2437C8.41191 11.2548 8.36557 11.2537 8.32203 11.2404L8.29903 11.2321C8.26848 11.2195 8.24077 11.2009 8.21754 11.1774L7.33005 10.2899L6.39256 9.35241C6.38132 9.34101 6.37064 9.32908 6.36056 9.31666L6.35631 9.31116C6.34981 9.30316 6.34356 9.29491 6.33756 9.28666L6.33081 9.27641L6.32631 9.26891C6.29359 9.21806 6.27054 9.16162 6.25831 9.10241L6.25656 9.09491C6.25352 9.07977 6.25119 9.06451 6.24956 9.04916L6.24706 8.99991C6.24709 8.8678 6.29939 8.74108 6.39256 8.64741L8.21754 6.82243C8.23418 6.80568 8.25312 6.79137 8.27379 6.77993L8.27629 6.77818L8.29879 6.76768C8.32928 6.75518 8.36228 6.74843 8.39528 6.74843L8.42003 6.74968ZM4.74907 6.49994C5.00347 6.49996 5.25754 6.51826 5.50932 6.55469C5.62067 6.5712 5.7314 6.59163 5.84131 6.61594C6.09856 6.67344 6.34231 6.75118 6.5718 6.84843C6.5943 6.85143 6.6163 6.85518 6.63605 6.86118C6.6503 6.86543 6.67255 6.87368 6.69355 6.88943C6.71093 6.90217 6.72509 6.9188 6.7349 6.93799C6.74471 6.95717 6.7499 6.97838 6.75005 6.99993C6.7497 7.0247 6.74372 7.04907 6.73255 7.07118C6.7253 7.08543 6.7168 7.09868 6.70855 7.11068C6.68867 7.13889 6.66739 7.16609 6.6448 7.19218C6.59405 7.25218 6.52255 7.32893 6.43856 7.41593C6.27006 7.59042 6.04431 7.81217 5.81356 8.03517C5.43732 8.39867 5.05157 8.76241 4.86882 8.93691C5.04307 9.10191 5.43257 9.47065 5.81381 9.83965C6.05981 10.0781 6.30131 10.3156 6.47381 10.4941C6.55955 10.5826 6.63055 10.6591 6.6763 10.7141C6.69805 10.7404 6.71955 10.7679 6.7333 10.7921C6.73755 10.7996 6.75455 10.8284 6.7558 10.8654C6.75688 10.8977 6.74591 10.9292 6.72502 10.9538C6.70413 10.9785 6.67482 10.9944 6.6428 10.9986L6.62505 10.9999H0.745117L0.719618 10.9986C0.703326 10.9969 0.687247 10.9936 0.671618 10.9886L0.668618 10.9876C0.654538 10.983 0.6409 10.9772 0.627869 10.9701C0.625619 10.9691 0.623619 10.9676 0.621369 10.9664L0.608869 10.9589L0.600619 10.9531C0.596696 10.9503 0.592861 10.9473 0.589119 10.9441L0.583119 10.9391C0.579695 10.9361 0.576361 10.9329 0.573119 10.9296L0.565869 10.9224L0.556119 10.9119L0.551119 10.9051C0.538539 10.8894 0.528114 10.8721 0.52012 10.8536L0.51612 10.8444C0.511081 10.8313 0.507232 10.8179 0.50462 10.8041C0.501052 10.7863 0.499542 10.7681 0.50012 10.7499C0.51362 10.3421 0.567619 9.9544 0.658868 9.5909C0.701535 9.42158 0.753276 9.25467 0.813867 9.09091C0.838795 9.02445 0.865302 8.9586 0.893366 8.89341C0.948119 8.76566 1.00911 8.64068 1.07611 8.51891C1.16486 8.35817 1.26311 8.20517 1.37111 8.06067C1.68654 7.637 2.08874 7.28551 2.55085 7.02968C2.74365 6.9226 2.94521 6.83211 3.15334 6.75918C3.49485 6.63909 3.8497 6.56102 4.21008 6.52669C4.38433 6.50919 4.56358 6.49994 4.74807 6.49994H4.74907ZM4.74757 0.75C4.85963 0.750153 4.97155 0.757837 5.08257 0.773L5.10232 0.7755C5.12657 0.779 5.15082 0.7835 5.17482 0.7875C5.19182 0.7905 5.20882 0.793 5.22557 0.796499C5.24182 0.799499 5.25807 0.803249 5.27457 0.806999C5.29732 0.811999 5.32007 0.816749 5.34282 0.822249L5.39682 0.836499C5.45527 0.852164 5.51314 0.869925 5.57031 0.889748C5.58781 0.895748 5.60531 0.902248 5.62281 0.908998C5.64031 0.915498 5.65756 0.921748 5.67481 0.928748C5.78805 0.973861 5.89777 1.02734 6.00306 1.08875C6.01681 1.09675 6.03056 1.1045 6.04381 1.11275C6.06281 1.12425 6.08131 1.13625 6.10006 1.14825C6.11656 1.15875 6.13331 1.16925 6.14956 1.1805C6.16356 1.18975 6.17706 1.19975 6.19081 1.20949L6.24756 1.24999L6.28531 1.27949C6.30331 1.29374 6.32181 1.30749 6.33956 1.32224C6.35706 1.33649 6.37381 1.35149 6.39081 1.36649C6.40331 1.37749 6.41631 1.38799 6.42881 1.39949C6.44356 1.41274 6.45731 1.42649 6.47155 1.44024C6.4863 1.45424 6.50155 1.46774 6.5158 1.48224C6.70715 1.67387 6.86605 1.89534 6.9863 2.13798C6.99355 2.15248 7.0013 2.16698 7.0083 2.18198C7.18207 2.55001 7.26333 2.9549 7.24505 3.36147L7.2448 3.37397C7.2428 3.41397 7.2398 3.45347 7.23605 3.49322L7.23155 3.53072C7.22864 3.55752 7.22531 3.58427 7.22155 3.61097C7.21905 3.62797 7.2158 3.64472 7.21305 3.66147C7.20296 3.72362 7.19036 3.78533 7.1753 3.84647C7.17105 3.86372 7.1663 3.88047 7.1618 3.89747C7.15655 3.91722 7.1513 3.93672 7.14555 3.95621C7.14155 3.97046 7.13705 3.98471 7.13255 3.99896C7.08387 4.15425 7.02007 4.30439 6.94205 4.44721C6.9036 4.51758 6.8618 4.58608 6.8168 4.65246C6.8068 4.66746 6.79605 4.68246 6.78555 4.69746C6.76218 4.73021 6.738 4.76239 6.71305 4.79396C6.70055 4.80996 6.68805 4.82621 6.67505 4.84196L6.64455 4.87745C6.60343 4.92582 6.56048 4.9726 6.5158 5.0177C6.44006 5.09345 6.35931 5.16295 6.27556 5.2277C6.26481 5.23595 6.25456 5.2447 6.24381 5.2527C6.22931 5.26345 6.21481 5.2737 6.20006 5.2842C6.18206 5.29695 6.16406 5.3097 6.14581 5.32195C6.12881 5.33345 6.11156 5.34445 6.09406 5.3557L6.04431 5.38695C6.02906 5.3962 6.01331 5.40495 5.99781 5.41395C5.97956 5.42445 5.96156 5.4352 5.94281 5.4452C5.82214 5.51071 5.6963 5.56623 5.56657 5.6112C5.4711 5.64411 5.37376 5.67133 5.27507 5.6927L5.22282 5.7037C5.2032 5.70744 5.18353 5.71094 5.16382 5.7142C5.14332 5.7177 5.12307 5.72145 5.10257 5.7242C5.08357 5.72695 5.06432 5.7292 5.04532 5.73145C5.02607 5.73395 5.00657 5.73645 4.98732 5.7382C4.95529 5.74116 4.9232 5.74349 4.89107 5.7452C4.88407 5.7457 4.87732 5.74645 4.87032 5.7467C4.83032 5.7487 4.79032 5.7497 4.75032 5.7497L4.74782 5.74995L4.62408 5.7467C4.58543 5.74475 4.54684 5.74192 4.50833 5.7382C4.49208 5.7367 4.47583 5.73445 4.45958 5.7327C4.43883 5.7302 4.41833 5.7277 4.39758 5.7247C4.37808 5.7222 4.35883 5.7187 4.33933 5.71545L4.28033 5.70545L4.23158 5.69545C4.19278 5.68724 4.15418 5.67807 4.11583 5.66795C4.09483 5.6627 4.07408 5.6567 4.05333 5.65045C4.03783 5.6462 4.02258 5.64195 4.00733 5.6372C3.98304 5.62957 3.95887 5.62157 3.93483 5.6132C3.92258 5.60895 3.91008 5.6052 3.89783 5.6007C3.87658 5.5932 3.85583 5.5847 3.83483 5.57645C3.78346 5.55647 3.73277 5.53479 3.68284 5.51145C3.67309 5.50695 3.66359 5.50195 3.65409 5.4972C3.63084 5.48595 3.60784 5.4747 3.58509 5.4627L3.53859 5.4372C3.51952 5.42671 3.50061 5.41596 3.48184 5.40495L3.44434 5.38245C3.41052 5.3618 3.37718 5.34038 3.34434 5.3182C3.32464 5.30473 3.30514 5.29098 3.28584 5.27695L3.24834 5.24995C3.2298 5.23588 3.21147 5.22154 3.19334 5.20695L3.15659 5.1777C3.12719 5.15353 3.09835 5.12869 3.07009 5.1032L2.98009 5.0177C2.9519 4.98945 2.9244 4.96053 2.89759 4.93095C2.88759 4.91995 2.87809 4.90845 2.86834 4.89745C2.85134 4.87795 2.83409 4.8587 2.81784 4.83871C2.80884 4.82771 2.80034 4.81621 2.79109 4.80521C2.76313 4.76994 2.73612 4.73392 2.7101 4.69721L2.67835 4.65221C2.66635 4.63421 2.65485 4.61596 2.64335 4.59796C2.63195 4.58035 2.62079 4.5626 2.60985 4.54471L2.58935 4.50971C2.56827 4.47372 2.54809 4.43721 2.52885 4.40021C2.49153 4.3284 2.45774 4.25482 2.4276 4.17971C2.4038 4.11989 2.38228 4.05918 2.3631 3.99771C2.35935 3.98646 2.3556 3.97521 2.35235 3.96371C2.34485 3.93846 2.33785 3.91297 2.33135 3.88772C2.32785 3.87422 2.32385 3.86097 2.32085 3.84772C2.31344 3.81718 2.3066 3.78651 2.30035 3.75572L2.29485 3.73072C2.28957 3.70372 2.28473 3.67663 2.28035 3.64947C2.27835 3.63697 2.2761 3.62422 2.27435 3.61147C2.27035 3.58472 2.26735 3.55747 2.26435 3.53047C2.26285 3.51797 2.26085 3.50547 2.2596 3.49297C2.25574 3.45338 2.25282 3.4137 2.25085 3.37397L2.2476 3.24997C2.2476 3.12722 2.25685 3.00548 2.2746 2.88548C2.27685 2.87048 2.2796 2.85598 2.2821 2.84123C2.2861 2.81623 2.2901 2.79123 2.2951 2.76623L2.3001 2.74248C2.3066 2.71173 2.31335 2.68148 2.32085 2.65098L2.32885 2.61998C2.33635 2.59148 2.34385 2.56298 2.3526 2.53473L2.3626 2.50223C2.40666 2.3617 2.46304 2.22534 2.5311 2.09474L2.54935 2.05974C2.58194 1.99975 2.61697 1.94112 2.65435 1.88399L2.67235 1.85624C2.6926 1.82599 2.71385 1.79624 2.7356 1.76649L2.7421 1.75749C2.7896 1.69349 2.84034 1.63149 2.89434 1.57199L2.97984 1.48199C3.19809 1.26427 3.45474 1.08882 3.73683 0.964498C3.79183 0.939998 3.84783 0.916998 3.90458 0.896498C4.1359 0.813666 4.37817 0.765397 4.62358 0.75325L4.74757 0.75Z" fill="black"/>
</g>
<defs>
<clipPath id="clip0_3_10">
<rect width="12" height="12" fill="white"/>
</clipPath>
</defs>
</svg>
