<svg width="1em" height="1em" fill="currentColor" class="tiktok-xrx4y4" viewBox="0 0 48 48" xmlns="http://www.w3.org/2000/svg" ><path d="M16.57 7.49a1 1 0 0 0-.13 1.4l4.04 4.81h-4.53c-2.71 0-4.07 0-5.1.52a4.82 4.82 0 0 0-2.12 2.1c-.53 1.02-.53 2.37-.53 5.05v10.26c0 2.68 0 4.03.53 5.05.46.9 1.2 1.64 2.12 2.1 1.03.52 2.39.52 5.1.52h16.1c2.71 0 4.07 0 5.1-.52a4.82 4.82 0 0 0 2.12-2.1c.53-1.02.53-2.37.53-5.05V21.37c0-2.68 0-4.03-.53-5.05a4.82 4.82 0 0 0-2.12-2.1c-1.03-.52-2.39-.52-5.1-.52h-4.6l4.04-4.8a1 1 0 0 0-.12-1.41l-.77-.65a1 1 0 0 0-1.4.13l-5.23 6.22-5.23-6.22a1 1 0 0 0-1.4-.13l-.77.65ZM15.3 26.65a1 1 0 0 1 .44-.44c.21-.1.49-.1 1.05-.1h.4c.56 0 .84 0 1.05.1a1 1 0 0 1 .44.44c.11.21.11.5.11 1.05V32c0 .56 0 .84-.1 1.05a1 1 0 0 1-.45.44c-.21.11-.49.11-1.05.11h-.4c-.56 0-.84 0-1.05-.1a1 1 0 0 1-.44-.45c-.11-.2-.11-.49-.11-1.05v-4.3c0-.56 0-.84.1-1.05ZM22.2 21c0-.56 0-.84.1-1.05a1 1 0 0 1 .45-.44c.21-.1.49-.1 1.05-.1h.4c.56 0 .84 0 1.05.1a1 1 0 0 1 .44.44c.11.21.11.5.11 1.05v11c0 .56 0 .84-.1 1.05a1 1 0 0 1-.45.44c-.21.11-.49.11-1.05.11h-.4c-.56 0-.84 0-1.05-.1a1 1 0 0 1-.44-.45c-.11-.2-.11-.49-.11-1.05V21Zm7.1 2.65a1 1 0 0 1 .45-.44c.21-.1.49-.1 1.05-.1h.4c.56 0 .84 0 1.05.1a1 1 0 0 1 .44.44c.11.21.11.5.11 1.05V32c0 .56 0 .84-.1 1.05a1 1 0 0 1-.45.44c-.21.11-.49.11-1.05.11h-.4c-.56 0-.84 0-1.05-.1a1 1 0 0 1-.44-.45c-.11-.2-.11-.49-.11-1.05v-7.3c0-.56 0-.84.1-1.05Z"></path></svg>