<svg fill="currentColor" class="css-dr8s99-StyledLiveIcon egn9vfa4" viewBox="0 0 48 48" xmlns="http://www.w3.org/2000/svg" ><path d="M16.78 26.82c-.08.18-.08.41-.08.88v3.9c0 .47 0 .7.08.88.1.25.3.44.54.54.18.08.41.08.88.08.47 0 .7 0 .88-.08a1 1 0 0 0 .54-.54c.08-.18.08-.41.08-.88v-3.9c0-.47 0-.7-.08-.88a1 1 0 0 0-.54-.54c-.18-.08-.41-.08-.88-.08-.47 0-.7 0-.88.08a1 1 0 0 0-.54.54ZM22.5 21.4c0-.47 0-.7.08-.88a1 1 0 0 1 .54-.54c.18-.08.41-.08.88-.08.47 0 .7 0 .88.08.25.1.44.3.54.54.08.18.08.41.08.88v10.2c0 .47 0 .7-.08.88a1 1 0 0 1-.54.54c-.18.08-.41.08-.88.08-.47 0-.7 0-.88-.08a1 1 0 0 1-.54-.54c-.08-.18-.08-.41-.08-.88V21.4ZM28.38 24.32c-.08.18-.08.41-.08.88v6.4c0 .47 0 .7.08.88.1.25.3.44.54.54.18.08.41.08.88.08.47 0 .7 0 .88-.08a1 1 0 0 0 .54-.54c.08-.18.08-.41.08-.88v-6.4c0-.47 0-.7-.08-.88a1 1 0 0 0-.54-.54c-.18-.08-.41-.08-.88-.08-.47 0-.7 0-.88.08a1 1 0 0 0-.54.54Z"></path><path d="M16.57 7.49a1 1 0 0 0-.13 1.4l3.62 4.31H15.7c-2.8 0-4.2 0-5.27.55a5 5 0 0 0-2.18 2.18C7.7 17 7.7 18.4 7.7 21.2v10.7c0 2.8 0 4.2.55 5.27a5 5 0 0 0 2.18 2.19c1.07.54 2.47.54 5.27.54h16.6c2.8 0 4.2 0 5.27-.54a5 5 0 0 0 2.19-2.19c.54-1.07.54-2.47.54-5.27V21.2c0-2.8 0-4.2-.54-5.27a5 5 0 0 0-2.19-2.18c-1.07-.55-2.47-.55-5.27-.55h-4.42l3.61-4.3a1 1 0 0 0-.12-1.41l-.77-.65a1 1 0 0 0-1.4.13l-5.23 6.22-5.23-6.22a1 1 0 0 0-1.4-.13l-.77.65Zm-.87 8.71h16.6c1.45 0 2.36 0 3.04.06.65.05.83.14.87.16.37.19.68.5.87.87.02.04.1.22.16.87.06.68.06 1.6.06 3.04v10.7c0 1.45 0 2.36-.06 3.04-.05.65-.14.83-.16.87a2 2 0 0 1-.87.87c-.04.02-.22.1-.87.16-.68.06-1.59.06-3.04.06H15.7c-1.45 0-2.36 0-3.04-.06a2.47 2.47 0 0 1-.87-.16 2 2 0 0 1-.87-.87c-.02-.04-.1-.22-.16-.87-.06-.68-.06-1.59-.06-3.04V21.2c0-1.45 0-2.36.06-3.04.05-.65.14-.83.16-.87a2 2 0 0 1 .87-.87c.04-.02.22-.1.87-.16a42.2 42.2 0 0 1 3.04-.06Z"></path></svg>